<svg xmlns="http://www.w3.org/2000/svg" xmlns:xlink="http://www.w3.org/1999/xlink" viewBox="0 0 615.41 150.12"><defs><style>.cls-1{fill:url(#Nouvelle_nuance_de_dégradé_1_14);}</style><linearGradient id="Nouvelle_nuance_de_dégradé_1_14" x1="80.39" y1="-50.31" x2="545" y2="217.93" gradientUnits="userSpaceOnUse"><stop offset="0" stop-color="#ffcd75"/><stop offset="1" stop-color="#bf2786"/></linearGradient></defs><title>Calque 2</title><g id="Calque_2" data-name="Calque 2"><g id="Calque_2-2" data-name="Calque 2"><path class="cls-1" d="M90,102.47v37.06a10.09,10.09,0,0,1-10,10,10.28,10.28,0,0,1-9.83-8.13A42.93,42.93,0,0,1,45,149.55a43.9,43.9,0,0,1-32.14-13.8A48.4,48.4,0,0,1,0,102.47,47.71,47.71,0,0,1,12.86,69.2a42.94,42.94,0,0,1,57.29-5.86C71.28,58.61,75.06,55,80,55A10.12,10.12,0,0,1,90,65.23Zm-20,0A27.79,27.79,0,0,0,62.58,83,23.34,23.34,0,0,0,45,75.25,22.75,22.75,0,0,0,27.42,83c-4.54,4.73-7.19,11.53-7.19,19.47A28.36,28.36,0,0,0,27.42,122,23.81,23.81,0,0,0,45,129.32,24.45,24.45,0,0,0,62.58,122,28.49,28.49,0,0,0,70,102.47Z"/><path class="cls-1" d="M169.59,65.42A10.65,10.65,0,0,1,159,75.81h-4.72v52.76a10.41,10.41,0,0,1,10.4,10.58,10.25,10.25,0,0,1-10.4,10.4,21.06,21.06,0,0,1-21-21V75.81h-5.48a10.36,10.36,0,0,1-10.4-10.39A10.25,10.25,0,0,1,127.81,55h5.48V27.6a10.42,10.42,0,0,1,10.59-10.4,10.25,10.25,0,0,1,10.4,10.4V55H159A10.52,10.52,0,0,1,169.59,65.42Z"/><path class="cls-1" d="M214.4,17.2A10.54,10.54,0,0,1,225,27.6V139.15a10.5,10.5,0,0,1-21,0V27.6A10.5,10.5,0,0,1,214.4,17.2Z"/><path class="cls-1" d="M329.73,102.47v37.06a10.09,10.09,0,0,1-10,10,10.28,10.28,0,0,1-9.83-8.13,42.91,42.91,0,0,1-25.15,8.13,43.92,43.92,0,0,1-32.14-13.8,48.4,48.4,0,0,1-12.86-33.28A47.71,47.71,0,0,1,252.59,69.2,43.54,43.54,0,0,1,284.73,55a43.07,43.07,0,0,1,25.15,8.32C311,58.61,314.79,55,319.71,55a10.12,10.12,0,0,1,10,10.21Zm-20,0A27.79,27.79,0,0,0,302.31,83a23.33,23.33,0,0,0-17.58-7.75A22.77,22.77,0,0,0,267.15,83c-4.54,4.73-7.19,11.53-7.19,19.47A28.36,28.36,0,0,0,267.15,122a23.82,23.82,0,0,0,17.58,7.37A24.44,24.44,0,0,0,302.31,122,28.49,28.49,0,0,0,309.69,102.47Z"/><path class="cls-1" d="M362.25,122.52A9.83,9.83,0,0,1,376.43,121c4.91,4.16,13.42,8.51,20.8,8.32a25.21,25.21,0,0,0,12.85-3.59c2.65-2.27,3.4-4.16,3.4-5.67a2.79,2.79,0,0,0-.56-1.89c-.19-.57-.95-1.33-2.46-2.27-2.65-1.89-8.32-4-15.13-5.3h-.18a72.07,72.07,0,0,1-16.45-4.91,31.54,31.54,0,0,1-13.05-11,22.9,22.9,0,0,1-3.21-11.91c0-8.7,4.91-16.07,11.15-20.8a40.66,40.66,0,0,1,23.26-7c13,0,22.31,6.24,28.36,10.4a10.43,10.43,0,0,1,3,14,10,10,0,0,1-14,2.64c-6.05-4-11.34-7-17.39-7a19.28,19.28,0,0,0-11.35,3.4c-2.46,1.7-3,3.41-3,4.35a2.05,2.05,0,0,0,.37,1.51,5.05,5.05,0,0,0,2.09,1.89c2.45,1.71,7.37,3.41,13.8,4.54l.19.19h.19a68.59,68.59,0,0,1,17.58,5.48c5.1,2.27,10.21,5.87,13.42,11.16a24.48,24.48,0,0,1,3.6,12.48c0,9.26-5.11,17-11.92,21.93a43,43,0,0,1-24.57,7.56c-14.75-.19-26.1-7-33.66-13A10.08,10.08,0,0,1,362.25,122.52Z"/><path class="cls-1" d="M480.79,149.55H455.27V0h25.52Z"/><path class="cls-1" d="M615.4,74.59q.39,31.35-21.36,53.16t-53.32,22l-46.89.38V0h46.52q31.18,0,52.93,21.72T615.4,74.59Zm-25.52.19q-.2-20.76-14.46-35T540.35,25.52h-21v98.7h21.17q20.81-.19,35.17-14.44T589.88,74.78Z"/></g></g></svg>